REM DIRINDEX 1\2\3,1\2\4,1\2\5,1\2\6
REM DIRNAME folder01,folder02,folder03,folder04,folder05,folder06
TITLE ""
FILE "139 139.mp3" MP3
  TRACK 01 AUDIO
    TITLE "0:"
    INDEX 01 00:00:00
  TRACK 02 AUDIO
    TITLE "3:cjc157_5203"
    INDEX 01 00:00:11
  TRACK 03 AUDIO
    TITLE "0:"
    INDEX 01 00:01:50
  TRACK 04 AUDIO
    TITLE "4:cjc157_5204"
    INDEX 01 00:02:18
  TRACK 05 AUDIO
    TITLE "0:"
    INDEX 01 00:03:25
  TRACK 06 AUDIO
    TITLE "5:cjc157_5205"
    INDEX 01 00:03:70
  TRACK 07 AUDIO
    TITLE "0:"
    INDEX 01 00:05:52
  TRACK 08 AUDIO
    TITLE "5:cjc157_5206"
    INDEX 01 00:06:22
  TRACK 09 AUDIO
    TITLE "0:"
    INDEX 01 00:08:28
  TRACK 10 AUDIO
    TITLE "3:cjc157_5207"
    INDEX 01 00:09:04
  TRACK 11 AUDIO
    TITLE "0:"
    INDEX 01 00:10:45
  TRACK 12 AUDIO
    TITLE "4:cjc157_5208"
    INDEX 01 00:11:19
  TRACK 13 AUDIO
    TITLE "0:"
    INDEX 01 00:12:50
  TRACK 14 AUDIO
    TITLE "5:cjc157_5209"
    INDEX 01 00:13:18
  TRACK 15 AUDIO
    TITLE "0:"
    INDEX 01 00:15:32
  TRACK 16 AUDIO
    TITLE "3:cjc157_5210"
    INDEX 01 00:16:00
  TRACK 17 AUDIO
    TITLE "0:"
    INDEX 01 00:17:18
  TRACK 18 AUDIO
    TITLE "4:cjc157_5211"
    INDEX 01 00:17:59
  TRACK 19 AUDIO
    TITLE "0:"
    INDEX 01 00:19:15
  TRACK 20 AUDIO
    TITLE "5:cjc157_5212"
    INDEX 01 00:19:56
  TRACK 21 AUDIO
    TITLE "0:"
    INDEX 01 00:22:07
  TRACK 22 AUDIO
    TITLE "5:cjc157_5213"
    INDEX 01 00:22:52
  TRACK 23 AUDIO
    TITLE "0:"
    INDEX 01 00:25:23
  TRACK 24 AUDIO
    TITLE "3:cjc157_5214"
    INDEX 01 00:25:70
  TRACK 25 AUDIO
    TITLE "0:"
    INDEX 01 00:27:08
  TRACK 26 AUDIO
    TITLE "4:cjc157_5215"
    INDEX 01 00:27:53
  TRACK 27 AUDIO
    TITLE "0:"
    INDEX 01 00:29:05
  TRACK 28 AUDIO
    TITLE "5:cjc157_5216"
    INDEX 01 00:29:54
  TRACK 29 AUDIO
    TITLE "0:"
    INDEX 01 00:32:52
  TRACK 30 AUDIO
    TITLE "3:cjc157_5217"
    INDEX 01 00:33:24
  TRACK 31 AUDIO
    TITLE "0:"
    INDEX 01 00:34:34
  TRACK 32 AUDIO
    TITLE "4:cjc157_5218"
    INDEX 01 00:35:10
  TRACK 33 AUDIO
    TITLE "0:"
    INDEX 01 00:36:25
  TRACK 34 AUDIO
    TITLE "5:cjc157_5219"
    INDEX 01 00:36:74
  TRACK 35 AUDIO
    TITLE "0:"
    INDEX 01 00:40:32
  TRACK 36 AUDIO
    TITLE "3:cjc157_5220"
    INDEX 01 00:40:73
  TRACK 37 AUDIO
    TITLE "0:"
    INDEX 01 00:42:18
  TRACK 38 AUDIO
    TITLE "4:cjc157_5221"
    INDEX 01 00:42:65
  TRACK 39 AUDIO
    TITLE "0:"
    INDEX 01 00:44:05
  TRACK 40 AUDIO
    TITLE "5:cjc157_5222"
    INDEX 01 00:44:48
  TRACK 41 AUDIO
    TITLE "0:"
    INDEX 01 00:46:45
  TRACK 42 AUDIO
    TITLE "5:cjc157_5223"
    INDEX 01 00:47:15
  TRACK 43 AUDIO
    TITLE "0:"
    INDEX 01 00:49:23
  TRACK 44 AUDIO
    TITLE "3:cjc157_5224"
    INDEX 01 00:49:70
  TRACK 45 AUDIO
    TITLE "0:"
    INDEX 01 00:51:40
  TRACK 46 AUDIO
    TITLE "4:cjc157_5225"
    INDEX 01 00:52:10
  TRACK 47 AUDIO
    TITLE "0:"
    INDEX 01 00:55:10
  TRACK 48 AUDIO
    TITLE "5:cjc157_5226"
    INDEX 01 00:55:61
  TRACK 49 AUDIO
    TITLE "0:"
    INDEX 01 00:59:06
  TRACK 50 AUDIO
    TITLE "5:cjc157_5227"
    INDEX 01 00:59:51
  TRACK 51 AUDIO
    TITLE "0:"
    INDEX 01 01:01:56
  TRACK 52 AUDIO
    TITLE "3:cjc157_5228"
    INDEX 01 01:02:36
  TRACK 53 AUDIO
    TITLE "0:"
    INDEX 01 01:03:59
  TRACK 54 AUDIO
    TITLE "4:cjc157_5229"
    INDEX 01 01:04:25
  TRACK 55 AUDIO
    TITLE "0:"
    INDEX 01 01:05:24
  TRACK 56 AUDIO
    TITLE "5:cjc157_5230"
    INDEX 01 01:05:73
  TRACK 57 AUDIO
    TITLE "0:"
    INDEX 01 01:08:19
  TRACK 58 AUDIO
    TITLE "3:cjc157_5231"
    INDEX 01 01:08:68
  TRACK 59 AUDIO
    TITLE "0:"
    INDEX 01 01:10:04
  TRACK 60 AUDIO
    TITLE "4:cjc157_5232"
    INDEX 01 01:10:53
  TRACK 61 AUDIO
    TITLE "0:"
    INDEX 01 01:11:72
  TRACK 62 AUDIO
    TITLE "5:cjc157_5233"
    INDEX 01 01:12:40
  TRACK 63 AUDIO
    TITLE "0:"
    INDEX 01 01:14:74
  TRACK 64 AUDIO
    TITLE "3:cjc157_5234"
    INDEX 01 01:15:48
  TRACK 65 AUDIO
    TITLE "0:"
    INDEX 01 01:17:16
  TRACK 66 AUDIO
    TITLE "4:cjc157_5235"
    INDEX 01 01:17:69
  TRACK 67 AUDIO
    TITLE "0:"
    INDEX 01 01:19:05
  TRACK 68 AUDIO
    TITLE "5:cjc157_5236"
    INDEX 01 01:19:50
  TRACK 69 AUDIO
    TITLE "0:"
    INDEX 01 01:22:72
